<svg xmlns="http://www.w3.org/2000/svg" width="12.59" height="17.311" viewBox="0 0 12.59 17.311">
  <g id="bell" transform="translate(-6 -1.5)">
    <path id="Path_1" data-name="Path 1" d="M13.869,3.074V3.3A5.51,5.51,0,0,1,17.8,8.582V14.09h.787v1.574H6V14.09h.787V8.582A5.511,5.511,0,0,1,10.721,3.3V3.074a1.574,1.574,0,1,1,3.147,0ZM8.361,14.09h7.869V8.582a3.934,3.934,0,1,0-7.869,0Zm5.508,3.147V16.45H10.721v.787a1.574,1.574,0,1,0,3.147,0Z" transform="translate(0 0)" fill="#5d422c" fill-rule="evenodd"/>
  </g>
</svg>
