<svg xmlns="http://www.w3.org/2000/svg" xmlns:xlink="http://www.w3.org/1999/xlink" width="155.216" height="194" viewBox="0 0 155.216 194">
  <defs>
    <clipPath id="clip-path">
      <rect id="Rectangle_36" data-name="Rectangle 36" width="155.216" height="194" transform="translate(0 -33.745)" fill="none"/>
    </clipPath>
    <clipPath id="clip-path-2">
      <rect id="Rectangle_35" data-name="Rectangle 35" width="155.216" height="194.255" transform="translate(0 -34)" fill="none"/>
    </clipPath>
    <clipPath id="clip-path-3">
      <rect id="Rectangle_12" data-name="Rectangle 12" width="45.271" height="23.372" fill="none"/>
    </clipPath>
    <clipPath id="clip-path-4">
      <rect id="Rectangle_13" data-name="Rectangle 13" width="45.272" height="23.372" fill="none"/>
    </clipPath>
    <clipPath id="clip-path-5">
      <rect id="Rectangle_14" data-name="Rectangle 14" width="77.681" height="55.95" fill="none"/>
    </clipPath>
    <clipPath id="clip-path-7">
      <rect id="Rectangle_16" data-name="Rectangle 16" width="52.557" height="92.068" fill="none"/>
    </clipPath>
    <clipPath id="clip-path-8">
      <rect id="Rectangle_17" data-name="Rectangle 17" width="52.558" height="92.068" fill="none"/>
    </clipPath>
    <clipPath id="clip-path-9">
      <rect id="Rectangle_18" data-name="Rectangle 18" width="36.823" height="103.785" fill="none"/>
    </clipPath>
    <clipPath id="clip-path-10">
      <rect id="Rectangle_19" data-name="Rectangle 19" width="8.524" height="23.24" fill="none"/>
    </clipPath>
    <clipPath id="clip-path-11">
      <rect id="Rectangle_20" data-name="Rectangle 20" width="7.623" height="20.788" fill="none"/>
    </clipPath>
    <clipPath id="clip-path-12">
      <rect id="Rectangle_21" data-name="Rectangle 21" width="33.433" height="91.224" fill="none"/>
    </clipPath>
    <clipPath id="clip-path-14">
      <rect id="Rectangle_23" data-name="Rectangle 23" width="7.625" height="20.788" fill="none"/>
    </clipPath>
    <clipPath id="clip-path-15">
      <rect id="Rectangle_24" data-name="Rectangle 24" width="2.887" height="2.887" fill="none"/>
    </clipPath>
    <clipPath id="clip-path-16">
      <rect id="Rectangle_25" data-name="Rectangle 25" width="2.888" height="2.888" fill="none"/>
    </clipPath>
    <clipPath id="clip-path-18">
      <rect id="Rectangle_27" data-name="Rectangle 27" width="4.474" height="4.474" fill="none"/>
    </clipPath>
    <clipPath id="clip-path-20">
      <rect id="Rectangle_29" data-name="Rectangle 29" width="2.887" height="2.888" fill="none"/>
    </clipPath>
    <clipPath id="clip-path-22">
      <rect id="Rectangle_31" data-name="Rectangle 31" width="6.633" height="6.632" fill="none"/>
    </clipPath>
    <clipPath id="clip-path-24">
      <rect id="Rectangle_33" data-name="Rectangle 33" width="5.413" height="5.414" fill="none"/>
    </clipPath>
    <clipPath id="clip-path-25">
      <rect id="Rectangle_34" data-name="Rectangle 34" width="9.548" height="9.548" fill="none"/>
    </clipPath>
  </defs>
  <g id="Group_80" data-name="Group 80" transform="translate(0 33.745)">
    <g id="Group_79" data-name="Group 79" clip-path="url(#clip-path)">
      <g id="Group_78" data-name="Group 78">
        <g id="Group_77" data-name="Group 77" clip-path="url(#clip-path-2)">
          <g id="Group_10" data-name="Group 10" transform="translate(69.978 110.439)" opacity="0.2" style="mix-blend-mode: multiply;isolation: isolate">
            <g id="Group_9" data-name="Group 9">
              <g id="Group_8" data-name="Group 8" clip-path="url(#clip-path-3)">
                <path id="Path_127" data-name="Path 127" d="M178.38,268.412c-15.222-6.75-21-18.925-21-18.925s12.9-3.888,28.125,2.863,17.146,17.216,17.146,17.216-9.048,5.6-24.27-1.155" transform="translate(-157.379 -248.373)" fill="#922616"/>
              </g>
            </g>
          </g>
          <g id="Group_13" data-name="Group 13" transform="translate(33.982 110.439)" opacity="0.2" style="mix-blend-mode: multiply;isolation: isolate">
            <g id="Group_12" data-name="Group 12">
              <g id="Group_11" data-name="Group 11" clip-path="url(#clip-path-4)">
                <path id="Path_128" data-name="Path 128" d="M100.694,268.412c15.222-6.75,21-18.925,21-18.925s-12.9-3.888-28.126,2.863-17.146,17.216-17.146,17.216,9.048,5.6,24.27-1.155" transform="translate(-76.424 -248.373)" fill="#922616"/>
              </g>
            </g>
          </g>
          <g id="Group_16" data-name="Group 16" transform="translate(67.86 68.094)" opacity="0.2" style="mix-blend-mode: multiply;isolation: isolate">
            <g id="Group_15" data-name="Group 15">
              <g id="Group_14" data-name="Group 14" clip-path="url(#clip-path-5)">
                <path id="Path_129" data-name="Path 129" d="M204.421,193.214c-26.12,18.305-51.806,15.757-51.806,15.757s6.371-25.014,32.491-43.319S230.3,154.53,230.3,154.53s.245,20.379-25.875,38.683" transform="translate(-152.615 -153.141)" fill="#922616"/>
              </g>
            </g>
          </g>
          <g id="Group_19" data-name="Group 19" transform="translate(0 68.094)" opacity="0.2" style="mix-blend-mode: multiply;isolation: isolate">
            <g id="Group_18" data-name="Group 18">
              <g id="Group_17" data-name="Group 17" clip-path="url(#clip-path-5)">
                <path id="Path_130" data-name="Path 130" d="M25.876,193.214C52,211.519,77.681,208.971,77.681,208.971s-6.372-25.014-32.49-43.319S0,154.53,0,154.53s-.244,20.379,25.876,38.683" transform="translate(0 -153.141)" fill="#922616"/>
              </g>
            </g>
          </g>
          <g id="Group_22" data-name="Group 22" transform="translate(71.496 32.346)" opacity="0.2" style="mix-blend-mode: multiply;isolation: isolate">
            <g id="Group_21" data-name="Group 21">
              <g id="Group_20" data-name="Group 20" clip-path="url(#clip-path-7)">
                <path id="Path_131" data-name="Path 131" d="M204.389,123.358c-16.106,30.957-42.323,41.456-42.323,41.456s-6.449-27.5,9.657-58.452,38.246-33.616,38.246-33.616,10.528,19.656-5.58,50.612" transform="translate(-160.791 -72.746)" fill="#922616"/>
              </g>
            </g>
          </g>
          <g id="Group_25" data-name="Group 25" transform="translate(21.488 32.346)" opacity="0.2" style="mix-blend-mode: multiply;isolation: isolate">
            <g id="Group_24" data-name="Group 24">
              <g id="Group_23" data-name="Group 23" clip-path="url(#clip-path-8)">
                <path id="Path_132" data-name="Path 132" d="M57.285,123.358c16.107,30.957,42.324,41.456,42.324,41.456s6.448-27.5-9.658-58.452S51.707,72.746,51.707,72.746,41.178,92.4,57.285,123.358" transform="translate(-48.327 -72.746)" fill="#922616"/>
              </g>
            </g>
          </g>
          <g id="Group_28" data-name="Group 28" transform="translate(54.359 24.557)" opacity="0.2" style="mix-blend-mode: multiply;isolation: isolate">
            <g id="Group_27" data-name="Group 27">
              <g id="Group_26" data-name="Group 26" clip-path="url(#clip-path-9)">
                <path id="Path_133" data-name="Path 133" d="M159.075,102.7c0,34.9-18.411,56.312-18.411,56.312S122.252,137.6,122.252,102.7s18.412-47.473,18.412-47.473,18.411,12.578,18.411,47.473" transform="translate(-122.252 -55.228)" fill="#922616"/>
              </g>
            </g>
          </g>
          <path id="Path_134" data-name="Path 134" d="M124.744,82.891c.355-.244.643-.426.958-.62s.619-.375.933-.553c.626-.358,1.262-.7,1.918-1.017a22.824,22.824,0,0,1,4.245-1.62,13.443,13.443,0,0,1,2.514-.42,8.588,8.588,0,0,1,2.98.3,6.559,6.559,0,0,1,2.944,1.8l.287.322.07.081.148.189,0,.007.009.013.015.026.067.1.262.409a9.2,9.2,0,0,1,.663,1.249,7.062,7.062,0,0,1,.475,1.409,7.465,7.465,0,0,1,.222,1.384,8.9,8.9,0,0,1-.21,2.736,9.392,9.392,0,0,1-2.569,4.536,7.2,7.2,0,0,1-.962.833c-.168.128-.33.264-.5.379l-.536.318a6.947,6.947,0,0,1-1.1.563,11.8,11.8,0,0,1-1.13.437l-1.15.307c-.383.089-.768.12-1.151.178l-.575.075-1.376.013-1.939.014V93.884h1.616c.356,0,.611-.8.908-.791s.57-.372.854-.351c.567.046,1.133-.089,1.7,0a16.614,16.614,0,0,1,3.423.8,10.382,10.382,0,0,1,3.347,1.966,7.6,7.6,0,0,1,2.263,3.707,8.346,8.346,0,0,1,.212,1.065c.02.177.029.348.042.524l.017.262,0,.065-.192,1.751-.065.5a11.29,11.29,0,0,1-1.482,3.655,12.647,12.647,0,0,1-5.891,5,10.687,10.687,0,0,1-8.156-.02,12.575,12.575,0,0,1-3.413-2.1,17.22,17.22,0,0,1-2.569-2.737c-.387-.479-.692-.982-1.04-1.476l.073.114-.007-.01-.014-.02-.028-.039-.056-.079c-.032-.043-.09-.136-.134-.2l-.281-.441c-.184-.3-.31-.538-.467-.811-.315-.531-.542-1.075-.812-1.615-.247-.546-.452-1.108-.675-1.664a22.715,22.715,0,0,1-.949-3.485l-.173-.894c-.063-.3-.066.194-.1-.109l-.148-1.033H125l.035.455a.767.767,0,0,0,.026.23l.09.43a14.811,14.811,0,0,0,.52,2.413c.142.407.261.777.415,1.18.173.388.311.788.507,1.155.09.179.189.389.27.535l.118.215c.024.042.028.059.069.123l.182.287c.229.36.431.757.678,1.092a11.177,11.177,0,0,0,1.538,1.866,6.686,6.686,0,0,0,1.749,1.251,5.015,5.015,0,0,0,3.886.248,7.374,7.374,0,0,0,3.544-2.676,6.3,6.3,0,0,0,.968-1.978l.071-.25a1.745,1.745,0,0,1,.038-.183,3.592,3.592,0,0,0,.072-.641l.008-.1a2.758,2.758,0,0,0-.94-2.294,5.83,5.83,0,0,0-1.821-1.254,12.423,12.423,0,0,0-2.487-.813c-.446-.1-.891-.181-1.349-.245-.228-.031-1.262-.061-1.488-.082s-1.44-.041-1.44-.051V92.273l1.618-.095.806-.044.585-.095c.253-.069.618-.106.858-.191l.758-.268c.237-.086.458-.23.678-.335a3.285,3.285,0,0,0,.61-.389l.291-.2c.089-.074.165-.161.248-.239a3.072,3.072,0,0,0,.461-.489,4.375,4.375,0,0,0,1-2.256,3.564,3.564,0,0,0-.042-1.13,2.3,2.3,0,0,0-.149-.52c-.072-.155-.126-.366-.194-.411a1.789,1.789,0,0,0-.288-.442l-.3-.383-.075-.1-.019-.024-.009-.012-.005-.006c.277.358.075.1.137.178l-.013-.006a.307.307,0,0,1-.049-.031.808.808,0,0,0-.387-.111,3.249,3.249,0,0,0-.88.055,7.775,7.775,0,0,0-1.288.367,16.9,16.9,0,0,0-2.887,1.454c-.483.3-.965.617-1.437.95-.236.166-.468.337-.7.51s-.464.358-.631.5Z" transform="translate(-68.535 -90.095)" fill="#db9a00"/>
          <path id="Path_135" data-name="Path 135" d="M167.589,103.769l.034.145c.024.1.063.249.121.445a11.917,11.917,0,0,0,.623,1.651,7.628,7.628,0,0,0,1.463,2.176,3.6,3.6,0,0,0,2.742,1.144,7.079,7.079,0,0,0,3.606-1.433c.309-.2.608-.435.909-.673l.229-.178.189-.173.461-.418a4.32,4.32,0,0,0,.381-.407c.117-.137.242-.257.356-.407a9.522,9.522,0,0,0,.658-.942,9.364,9.364,0,0,0,.979-2.133,11.508,11.508,0,0,0,.455-2.379,13.538,13.538,0,0,0-.07-2.483,13.918,13.918,0,0,0-.564-2.441,9.534,9.534,0,0,0-2.463-4.019,3.085,3.085,0,0,0-1.587-.81,1.767,1.767,0,0,0-1.332.4c-.111.085-.218.2-.329.287l-.042.035-.021.017c-.031.03.032-.032.02-.019l-.014.014-.111.117-.221.231-.438.461c-.152.154-.288.3-.4.447-.246.294-.492.564-.731.865l-.707.9c-.918,1.212-1.717,2.456-2.619,3.647a12.279,12.279,0,0,1-3.187,3.079c-.311.175-.612.344-.9.507l-.884.359a5.768,5.768,0,0,1-.822.255c-.264.069-.517.138-.755.192l-1.256.184c-.362.039-.659.039-.905.056l-.753.034.055-4.063.578,0c.185,0,.426.009.689-.009l.889-.087a6.441,6.441,0,0,0,2.088-.7,8.562,8.562,0,0,0,2.3-2.08c.822-.985,1.71-2.236,2.77-3.518l.825-.965c.284-.325.607-.656.915-.987.158-.173.312-.327.462-.467l.459-.441.23-.222.116-.112.015-.013s.071-.069.05-.047l.041-.034.082-.068c.224-.178.436-.362.679-.526.262-.153.517-.313.8-.446a6.864,6.864,0,0,1,.909-.312,4.732,4.732,0,0,1,1.964-.054,6.122,6.122,0,0,1,3.125,1.687,10.441,10.441,0,0,1,1.9,2.561,14.142,14.142,0,0,1,1.156,2.847,16.657,16.657,0,0,1,.552,2.982,16.178,16.178,0,0,1-.051,3.01,13.922,13.922,0,0,1-.692,2.9,11.692,11.692,0,0,1-1.335,2.6,12.03,12.03,0,0,1-.87,1.133c-.322.347-.69.728-1.013,1.013l-.479.4-.279.229-.265.188c-.349.253-.7.5-1.066.718a11.5,11.5,0,0,1-2.265,1.119,6.834,6.834,0,0,1-2.447.446,5.222,5.222,0,0,1-2.317-.556,5.843,5.843,0,0,1-1.661-1.278,9.242,9.242,0,0,1-1.67-2.718,13.427,13.427,0,0,1-.621-1.893c-.055-.224-.092-.4-.116-.517s-.035-.187-.035-.187Z" transform="translate(-88.845 -94.307)" fill="#db9a00"/>
          <path id="Path_136" data-name="Path 136" d="M158.866,67.77l.068.2c.047.132.122.327.231.571a9.9,9.9,0,0,0,1.107,1.886,8.893,8.893,0,0,0,.952,1.056,7.517,7.517,0,0,0,1.235.908,6.821,6.821,0,0,0,1.472.592,6.683,6.683,0,0,0,1.619.2,8.923,8.923,0,0,0,1.655-.157l.812-.19.787-.248a15.688,15.688,0,0,0,1.466-.6c.463-.2.89-.441,1.284-.655s.745-.445,1.061-.627.582-.373.8-.522l.691-.468,2.094,3.483-.852.413c-.271.13-.595.294-.987.454s-.814.367-1.315.538-1.019.381-1.605.544a18.66,18.66,0,0,1-1.858.463l-1.012.162-1.058.09a11.636,11.636,0,0,1-2.2-.114,9.148,9.148,0,0,1-2.147-.592,8.95,8.95,0,0,1-1.855-1.084,9.372,9.372,0,0,1-1.4-1.38,10.66,10.66,0,0,1-.953-1.424,11.359,11.359,0,0,1-.943-2.315c-.082-.289-.134-.519-.167-.68s-.048-.254-.048-.254Z" transform="translate(-87.923 -84.792)" fill="#db9a00"/>
          <path id="Path_137" data-name="Path 137" d="M172.125,66.644l-1.351-4.054,3.484-2.58,2.29,4.423Z" transform="translate(-94.249 -81.006)" fill="#db9a00"/>
          <path id="Path_138" data-name="Path 138" d="M210.858,245.623l-29.008-26.229s5.716-19.463,3.571-26.783-14.284-38.39-16.962-38.211c-.108.008-.207.138-.3.359v70.312l16.151,20.552Z" transform="translate(-93.387 -85.746)" fill="#ebaf61"/>
          <g id="Group_31" data-name="Group 31" transform="translate(74.727 75.261)" opacity="0.5">
            <g id="Group_30" data-name="Group 30">
              <g id="Group_29" data-name="Group 29" clip-path="url(#clip-path-10)">
                <path id="Path_139" data-name="Path 139" d="M168.059,169.259s.673,1.4,1.57,3.544c.454,1.069.964,2.324,1.494,3.675.261.677.542,1.372.806,2.086l.809,2.162.781,2.173c.262.715.5,1.428.735,2.112.47,1.373.892,2.66,1.237,3.769.7,2.215,1.092,3.719,1.092,3.719s-.673-1.4-1.571-3.543c-.454-1.069-.965-2.324-1.494-3.675-.261-.677-.543-1.371-.805-2.086l-.809-2.162-.78-2.173c-.261-.716-.5-1.428-.734-2.113-.47-1.373-.892-2.66-1.237-3.769-.7-2.215-1.093-3.719-1.093-3.719" transform="translate(-168.059 -169.259)" fill="#fff"/>
              </g>
            </g>
          </g>
          <g id="Group_34" data-name="Group 34" transform="translate(74.727 87.025)" opacity="0.5">
            <g id="Group_33" data-name="Group 33">
              <g id="Group_32" data-name="Group 32" clip-path="url(#clip-path-11)">
                <path id="Path_140" data-name="Path 140" d="M168.059,195.716s.616,1.248,1.43,3.161c.411.955.872,2.075,1.349,3.282.234.605.489,1.226.725,1.864l.725,1.934c.233.651.467,1.3.7,1.944s.441,1.278.653,1.891c.418,1.229.79,2.382,1.093,3.376.615,1.985.952,3.336.952,3.336s-.617-1.247-1.431-3.16c-.411-.955-.873-2.075-1.349-3.282-.234-.605-.49-1.225-.724-1.865l-.725-1.933-.7-1.944c-.233-.64-.44-1.278-.652-1.891-.417-1.229-.79-2.382-1.093-3.377-.616-1.985-.953-3.335-.953-3.335" transform="translate(-168.059 -195.716)" fill="#fff"/>
              </g>
            </g>
          </g>
          <path id="Path_141" data-name="Path 141" d="M72.127,245.623h26.55l16.15-20.552V154.759c-.093-.221-.193-.351-.3-.359-2.679-.178-14.82,30.891-16.963,38.211s3.572,26.783,3.572,26.783Z" transform="translate(-40.056 -85.746)" fill="#ebaf61"/>
          <g id="Group_37" data-name="Group 37" transform="translate(41.338 68.654)" opacity="0.3" style="mix-blend-mode: multiply;isolation: isolate">
            <g id="Group_36" data-name="Group 36">
              <g id="Group_35" data-name="Group 35" clip-path="url(#clip-path-12)">
                <path id="Path_142" data-name="Path 142" d="M126.1,154.4c-.3-.02-.713.351-1.216,1.026v64.53L92.968,245.624h17.724L126.4,225.072V154.76c-.093-.221-.193-.351-.3-.359" transform="translate(-92.968 -154.4)" fill="#ec96d3"/>
              </g>
            </g>
          </g>
          <g id="Group_40" data-name="Group 40" transform="translate(66.203 75.261)" opacity="0.5">
            <g id="Group_39" data-name="Group 39">
              <g id="Group_38" data-name="Group 38" clip-path="url(#clip-path-10)">
                <path id="Path_143" data-name="Path 143" d="M157.412,169.259s-.393,1.5-1.093,3.719c-.346,1.109-.767,2.4-1.237,3.769-.239.685-.474,1.4-.734,2.113s-.519,1.445-.78,2.173l-.809,2.162c-.262.715-.545,1.41-.805,2.086-.529,1.351-1.04,2.606-1.494,3.675-.9,2.143-1.571,3.543-1.571,3.543s.393-1.5,1.092-3.719c.346-1.109.767-2.4,1.237-3.769.239-.684.473-1.4.735-2.112l.781-2.173.809-2.162c.264-.714.545-1.409.806-2.086.53-1.351,1.04-2.606,1.494-3.675.9-2.143,1.571-3.544,1.571-3.544" transform="translate(-148.888 -169.259)" fill="#fff"/>
              </g>
            </g>
          </g>
          <g id="Group_43" data-name="Group 43" transform="translate(67.102 87.025)" opacity="0.5">
            <g id="Group_42" data-name="Group 42">
              <g id="Group_41" data-name="Group 41" clip-path="url(#clip-path-14)">
                <path id="Path_144" data-name="Path 144" d="M158.536,195.716s-.337,1.35-.953,3.336c-.3.994-.676,2.147-1.093,3.376-.213.613-.42,1.251-.653,1.891s-.463,1.293-.7,1.944l-.725,1.933c-.234.639-.49,1.26-.724,1.865-.476,1.208-.938,2.328-1.349,3.282-.814,1.913-1.431,3.16-1.431,3.16s.336-1.351.952-3.336c.3-.994.676-2.148,1.093-3.376.213-.613.419-1.252.654-1.891s.463-1.293.7-1.944l.726-1.934c.236-.639.49-1.259.725-1.864.476-1.207.938-2.328,1.349-3.282.814-1.912,1.43-3.161,1.43-3.161" transform="translate(-150.912 -195.716)" fill="#fff"/>
              </g>
            </g>
          </g>
          <g id="Group_46" data-name="Group 46" transform="translate(9.738 35.889)" opacity="0.2" style="mix-blend-mode: multiply;isolation: isolate">
            <g id="Group_45" data-name="Group 45">
              <g id="Group_44" data-name="Group 44" clip-path="url(#clip-path-15)">
                <path id="Path_145" data-name="Path 145" d="M24.787,109.152a1.444,1.444,0,1,1-1.443-1.444,1.444,1.444,0,0,1,1.443,1.444" transform="translate(-21.9 -107.708)" fill="#922616"/>
              </g>
            </g>
          </g>
          <g id="Group_49" data-name="Group 49" transform="translate(132.764 43.578)" opacity="0.2" style="mix-blend-mode: multiply;isolation: isolate">
            <g id="Group_48" data-name="Group 48">
              <g id="Group_47" data-name="Group 47" clip-path="url(#clip-path-16)">
                <path id="Path_146" data-name="Path 146" d="M301.47,126.444A1.444,1.444,0,1,1,300.026,125a1.444,1.444,0,0,1,1.443,1.443" transform="translate(-298.582 -125.001)" fill="#922616"/>
              </g>
            </g>
          </g>
          <g id="Group_52" data-name="Group 52" transform="translate(152.329 48.469)" opacity="0.2" style="mix-blend-mode: multiply;isolation: isolate">
            <g id="Group_51" data-name="Group 51">
              <g id="Group_50" data-name="Group 50" clip-path="url(#clip-path-16)">
                <path id="Path_147" data-name="Path 147" d="M345.47,137.444A1.444,1.444,0,1,1,344.026,136a1.444,1.444,0,0,1,1.443,1.443" transform="translate(-342.582 -136.001)" fill="#922616"/>
              </g>
            </g>
          </g>
          <g id="Group_55" data-name="Group 55" transform="translate(34.148 4.545)" opacity="0.2" style="mix-blend-mode: multiply;isolation: isolate">
            <g id="Group_54" data-name="Group 54">
              <g id="Group_53" data-name="Group 53" clip-path="url(#clip-path-18)">
                <path id="Path_148" data-name="Path 148" d="M81.271,39.453a2.237,2.237,0,1,1-2.236-2.237,2.237,2.237,0,0,1,2.236,2.237" transform="translate(-76.797 -37.216)" fill="#922616"/>
              </g>
            </g>
          </g>
          <g id="Group_58" data-name="Group 58" transform="translate(70.513 -12.003)" opacity="0.2" style="mix-blend-mode: multiply;isolation: isolate">
            <g id="Group_57" data-name="Group 57">
              <g id="Group_56" data-name="Group 56" clip-path="url(#clip-path-16)">
                <path id="Path_149" data-name="Path 149" d="M161.47,1.444A1.444,1.444,0,1,1,160.026,0a1.444,1.444,0,0,1,1.443,1.444" transform="translate(-158.582 0)" fill="#922616"/>
              </g>
            </g>
          </g>
          <g id="Group_61" data-name="Group 61" transform="translate(44.946 10.798)" opacity="0.2" style="mix-blend-mode: multiply;isolation: isolate">
            <g id="Group_60" data-name="Group 60">
              <g id="Group_59" data-name="Group 59" clip-path="url(#clip-path-20)">
                <path id="Path_150" data-name="Path 150" d="M103.969,52.723a1.444,1.444,0,1,1-1.443-1.444,1.444,1.444,0,0,1,1.443,1.444" transform="translate(-101.082 -51.279)" fill="#922616"/>
              </g>
            </g>
          </g>
          <g id="Group_64" data-name="Group 64" transform="translate(97.556 14.035)" opacity="0.2" style="mix-blend-mode: multiply;isolation: isolate">
            <g id="Group_63" data-name="Group 63">
              <g id="Group_62" data-name="Group 62" clip-path="url(#clip-path-20)">
                <path id="Path_151" data-name="Path 151" d="M222.288,60a1.444,1.444,0,1,1-1.443-1.444A1.444,1.444,0,0,1,222.288,60" transform="translate(-219.401 -58.56)" fill="#922616"/>
              </g>
            </g>
          </g>
          <g id="Group_67" data-name="Group 67" transform="translate(98.516 4.069)" opacity="0.2" style="mix-blend-mode: multiply;isolation: isolate">
            <g id="Group_66" data-name="Group 66">
              <g id="Group_65" data-name="Group 65" clip-path="url(#clip-path-22)">
                <path id="Path_152" data-name="Path 152" d="M228.193,39.463a3.316,3.316,0,1,1-3.317-3.317,3.316,3.316,0,0,1,3.317,3.317" transform="translate(-221.56 -36.146)" fill="#922616"/>
              </g>
            </g>
          </g>
          <g id="Group_70" data-name="Group 70" transform="translate(93.105 7.56)" opacity="0.2" style="mix-blend-mode: multiply;isolation: isolate">
            <g id="Group_69" data-name="Group 69">
              <g id="Group_68" data-name="Group 68" clip-path="url(#clip-path-16)">
                <path id="Path_153" data-name="Path 153" d="M212.277,45.442A1.444,1.444,0,1,1,210.832,44a1.444,1.444,0,0,1,1.444,1.444" transform="translate(-209.389 -43.998)" fill="#922616"/>
              </g>
            </g>
          </g>
          <g id="Group_73" data-name="Group 73" transform="translate(133.12 22.89)" opacity="0.2" style="mix-blend-mode: multiply;isolation: isolate">
            <g id="Group_72" data-name="Group 72">
              <g id="Group_71" data-name="Group 71" clip-path="url(#clip-path-24)">
                <path id="Path_154" data-name="Path 154" d="M304.8,81.18a2.707,2.707,0,1,1-2.707-2.707A2.707,2.707,0,0,1,304.8,81.18" transform="translate(-299.383 -78.473)" fill="#922616"/>
              </g>
            </g>
          </g>
          <g id="Group_76" data-name="Group 76" transform="translate(4.788 13.133)" opacity="0.2" style="mix-blend-mode: multiply;isolation: isolate">
            <g id="Group_75" data-name="Group 75">
              <g id="Group_74" data-name="Group 74" clip-path="url(#clip-path-25)">
                <path id="Path_155" data-name="Path 155" d="M20.307,60.994a4.774,4.774,0,1,1-5.076-4.453,4.775,4.775,0,0,1,5.076,4.453" transform="translate(-10.769 -56.531)" fill="#922616"/>
              </g>
            </g>
          </g>
        </g>
      </g>
    </g>
  </g>
</svg>
