<svg xmlns="http://www.w3.org/2000/svg" width="106.724" height="33.806" viewBox="0 0 106.724 33.806">
  <path id="Subtraction_1" data-name="Subtraction 1" d="M-357.276,32.806H-463V16.511h12.966a28.087,28.087,0,0,0,10.794-2.145,28.088,28.088,0,0,0,9.154-6.11A28.053,28.053,0,0,1-420.8,2.084,28.134,28.134,0,0,1-410.244,0h.213a28.134,28.134,0,0,1,10.558,2.084,28.054,28.054,0,0,1,9.283,6.172,28.088,28.088,0,0,0,9.153,6.11,28.087,28.087,0,0,0,10.794,2.145h12.966V32.8ZM-410.594,8.4a4,4,0,0,0-4,4,4,4,0,0,0,4,4,4,4,0,0,0,4-4A4,4,0,0,0-410.594,8.4Z" transform="translate(463.5 0.5)" fill="#fbf5e4" stroke="rgba(0,0,0,0)" stroke-miterlimit="10" stroke-width="1"/>
</svg>
