<svg xmlns="http://www.w3.org/2000/svg" width="35.204" height="35.205" viewBox="0 0 35.204 35.205">
  <g id="sun" transform="translate(-0.397 -0.399)">
    <path id="Path_1025" data-name="Path 1025" d="M7.875,18A10.125,10.125,0,1,1,18,28.125,10.125,10.125,0,0,1,7.875,18Z" fill="#de9126"/>
    <path id="Path_1026" data-name="Path 1026" d="M18.454.63a.563.563,0,0,0-.909,0L15.5,3.454a.563.563,0,0,1-.752.151L11.772,1.778a.563.563,0,0,0-.842.349L10.12,5.52a.563.563,0,0,1-.634.427L6.039,5.4a.563.563,0,0,0-.643.643l.549,3.447a.563.563,0,0,1-.425.634l-3.395.81a.563.563,0,0,0-.346.842l1.827,2.974a.563.563,0,0,1-.151.749L.629,17.542a.563.563,0,0,0,0,.911L3.455,20.5a.563.563,0,0,1,.151.752L1.778,24.228a.563.563,0,0,0,.346.842l3.4.81a.563.563,0,0,1,.423.634l-.549,3.447a.563.563,0,0,0,.643.643l3.447-.549a.563.563,0,0,1,.634.425l.81,3.393a.563.563,0,0,0,.842.349L14.745,32.4a.563.563,0,0,1,.749.151l2.047,2.826a.563.563,0,0,0,.911,0L20.5,32.546a.563.563,0,0,1,.752-.151l2.974,1.827a.563.563,0,0,0,.842-.349l.81-3.393a.563.563,0,0,1,.634-.427l3.447.551a.563.563,0,0,0,.643-.643l-.549-3.447a.563.563,0,0,1,.425-.634l3.393-.81a.563.563,0,0,0,.349-.842l-1.827-2.974a.563.563,0,0,1,.151-.749l2.826-2.047a.563.563,0,0,0,0-.911L32.543,15.5a.563.563,0,0,1-.151-.752l1.827-2.974a.563.563,0,0,0-.349-.842l-3.393-.81a.563.563,0,0,1-.427-.634L30.6,6.041a.563.563,0,0,0-.643-.643l-3.447.549a.563.563,0,0,1-.634-.425l-.81-3.393a.563.563,0,0,0-.842-.349L21.251,3.607a.563.563,0,0,1-.749-.151L18.457.63Zm-.454,5A12.375,12.375,0,1,0,30.375,18,12.375,12.375,0,0,0,18,5.625Z" fill="#f5d85c" fill-rule="evenodd"/>
  </g>
</svg>
