<svg xmlns="http://www.w3.org/2000/svg" width="36" height="22.5" viewBox="0 0 36 22.5">
  <path id="sunrise" d="M36,26.684q-3.41,2.18-3.375,4.816a16.083,16.083,0,0,0,.141,1.934Q36,34.594,36,36H0q0-1.406,3.27-2.6a17.246,17.246,0,0,0,.105-1.9Q3.305,28.793,0,26.684q8.965-.387,4.816-8.332,7.98,4.113,8.367-4.852Q15.292,16.8,18,16.875q2.637.07,4.816-3.375.387,8.965,8.367,4.852Q27.034,26.3,36,26.684ZM18,20.25A11.195,11.195,0,0,0,6.75,31.5q0,.422.035.984,1.055-.211,2.25-.387Q9,31.57,9,31.5a8.669,8.669,0,0,1,2.637-6.363A8.676,8.676,0,0,1,18,22.5a8.666,8.666,0,0,1,6.363,2.637A8.673,8.673,0,0,1,27,31.5q0,.1-.035.6,1.2.176,2.25.387.035-.6.035-.984A11.214,11.214,0,0,0,18,20.25Z" transform="translate(0 -13.5)" fill="#de9126"/>
</svg>
